<svg width="25" height="26" viewBox="0 0 25 26" fill="none" xmlns="http://www.w3.org/2000/svg">
<path d="M8.40002 8.5H15.6C19 8.5 19.34 10.09 19.57 12.03L20.47 19.53C20.76 21.99 20 24 16.5 24H7.51003C4.00003 24 3.24002 21.99 3.54002 19.53L4.44003 12.03C4.66003 10.09 5.00002 8.5 8.40002 8.5Z" stroke="#838383" stroke-width="1.5" stroke-linecap="round" stroke-linejoin="round"/>
<path d="M8 10V6.5C8 5 9 4 10.5 4H13.5C15 4 16 5 16 6.5V10" stroke="#838383" stroke-width="1.5" stroke-linecap="round" stroke-linejoin="round"/>
<circle cx="18.6333" cy="6.29608" r="5.63333" fill="#FF2323"/>
<path d="M21.4204 3.88526V5.37804C21.4204 5.61375 21.3627 5.83112 21.2475 6.03015C21.1323 6.22919 20.9751 6.38894 20.7761 6.50941C20.5823 6.62465 20.3676 6.68226 20.1319 6.68226C19.9171 6.68226 19.7233 6.63512 19.5505 6.54084C19.3828 6.44132 19.2493 6.30776 19.1498 6.14015C19.045 6.30776 18.9062 6.44132 18.7334 6.54084C18.5657 6.63512 18.3746 6.68226 18.1598 6.68226C17.9189 6.68226 17.7094 6.62203 17.5313 6.50156V9H16.8792V6.38371V6.06944C16.8792 5.60327 16.8661 5.19996 16.8399 4.8595C16.8189 4.51904 16.7692 4.20739 16.6906 3.92455L17.272 3.8067C17.382 4.0843 17.4606 4.59761 17.5077 5.34662C17.5077 5.52994 17.5706 5.68708 17.6963 5.81802C17.822 5.94373 17.9765 6.00658 18.1598 6.00658C18.3431 6.00658 18.4976 5.94373 18.6234 5.81802C18.7543 5.68708 18.8198 5.52994 18.8198 5.34662V4.12097H19.4719V5.34662C19.4719 5.52994 19.5347 5.68708 19.6604 5.81802C19.7914 5.94373 19.9485 6.00658 20.1319 6.00658C20.3099 6.00658 20.4618 5.94373 20.5875 5.81802C20.7132 5.68708 20.7761 5.52994 20.7761 5.34662V3.88526H21.4204Z" fill="white"/>
</svg>
